{"title":"DEXTER.2006.S01E01.1080P.BluRay.TrueHD.REMUX.mkv","uid":10986027,"size":10867615439,"categoryP":"video","categoryS":"hd___tv_shows","magnet":"?xt=urn:btih:11c8f2566e78bda89b5b5f8b8dc34441acc7f441&amp;dn=DEXTER.2006.S01E01.1080P.BluRay.TrueHD.REMUX.mkv&amp;tr=udp%3A%2F%2Ftracker.openbittorrent.com%3A80&amp;tr=udp%3A%2F%2Fopen.demonii.com%3A1337&amp;tr=udp%3A%2F%2Ftracker.coppersurfer.tk%3A6969&amp;tr=udp%3A%2F%2Fexodus.desync.com%3A6969","seeders":0,"leechers":1,"uploader":"xanaxvisa","files":-1,"time":1409924328,"description":"DEXTER: Season One, Episode One.\n\nOriginal Audio/Video from Blu-ray REMUXed into a mkv container for your pleasure.\n\nFormat                                   : Matroska\nFormat version                           : Version 2\nFile size                                : 10.1 GiB\nDuration                                 : 53mn 3s\nOverall bit rate mode                    : Variable\nOverall bit rate                         : 27.3 Mbps\nEncoded date                             : UTC 2014-09-02 07:43:53\nWriting application                      : MakeMKV v1.8.12 win(x64-release)\nWriting library                          : libmakemkv v1.8.12 (1.3.0/1.4.1) win(x64-release)\n\nVideo\nID                                       : 1\nFormat                                   : AVC\nFormat/Info                              : Advanced Video Codec\nFormat profile                           : &lt;a class=&quot;__cf_email__&quot; href=&quot;/cdn-cgi/l/email-protection&quot; data-cfemail=&quot;4008292728000c746e71&quot;&gt;[email&amp;#160;protected]&lt;/a&gt;&lt;script cf-hash='f9e31' type=&quot;text/javascript&quot;&gt;\n/* &lt;![CDATA[ */!function(){try{var t=&quot;currentScript&quot;in document?document.currentScript:function(){for(var t=document.getElementsByTagName(&quot;script&quot;),e=t.length;e--;)if(t[e].getAttribute(&quot;cf-hash&quot;))return t[e]}();if(t&amp;&amp;t.previousSibling){var e,r,n,i,c=t.previousSibling,a=c.getAttribute(&quot;data-cfemail&quot;);if(a){for(e=&quot;&quot;,r=parseInt(a.substr(0,2),16),n=2;a.length-n;n+=2)i=parseInt(a.substr(n,2),16)^r,e+=String.fromCharCode(i);e=document.createTextNode(e),c.parentNode.replaceChild(e,c)}}}catch(u){}}();/* ]]&gt; */&lt;/script&gt;\nFormat settings, CABAC                   : Yes\nFormat settings, ReFrames                : 2 frames\nCodec ID                                 : V_MPEG4/ISO/AVC\nDuration                                 : 53mn 3s\nBit rate mode                            : Variable\nWidth                                    : 1 920 pixels\nHeight                                   : 1 080 pixels\nDisplay aspect ratio                     : 16:9\nFrame rate                               : 23.976 fps\nColor space                              : YUV\nChroma subsampling                       : 4:2:0\nBit depth                                : 8 bits\nScan type                                : Progressive\nLanguage                                 : English\nDefault                                  : No\nForced                                   : No\n\nAudio #1\nID                                       : 2\nFormat                                   : TrueHD\nCodec ID                                 : A_TRUEHD\nDuration                                 : 53mn 3s\nBit rate mode                            : Variable\nMaximum bit rate                         : 5 445 Kbps\nChannel(s)                               : 6 channels\nChannel positions                        : Front: L C R, Side: L R, LFE\nSampling rate                            : 48.0 KHz\nBit depth                                : 24 bits\nCompression mode                         : Lossless\nTitle                                    : Surround 5.1\nLanguage                                 : English\nDefault                                  : Yes\nForced                                   : No\n\nAudio #2\nID                                       : 3\nFormat                                   : AC-3\nFormat/Info                              : Audio Coding 3\nMode extension                           : CM (complete main)\nCodec ID                                 : A_AC3\nDuration                                 : 53mn 3s\nBit rate mode                            : Constant\nBit rate                                 : 640 Kbps\nChannel(s)                               : 6 channels\nChannel positions                        : Front: L C R, Side: L R, LFE\nSampling rate                            : 48.0 KHz\nBit depth                                : 16 bits\nCompression mode                         : Lossy\nStream size                              : 243 MiB (2%)\nTitle                                    : Surround 5.1\nLanguage                                 : English\nDefault                                  : No\nForced                                   : No\n\nAudio #3\nID                                       : 4\nFormat                                   : AC-3\nFormat/Info                              : Audio Coding 3\nMode extension                           : CM (complete main)\nCodec ID                                 : A_AC3\nDuration                                 : 53mn 3s\nBit rate mode                            : Constant\nBit rate                                 : 256 Kbps\nChannel(s)                               : 2 channels\nChannel positions                        : Front: L R\nSampling rate                            : 48.0 KHz\nBit depth                                : 16 bits\nCompression mode                         : Lossy\nStream size                              : 97.1 MiB (1%)\nTitle                                    : Stereo\nLanguage                                 : Spanish\nDefault                                  : No\nForced                                   : No\n\nText\nID                                       : 5\nFormat                                   : PGS\nCodec ID                                 : S_HDMV/PGS\nCodec ID/Info                            : The same subtitle format used on BDs/HD-DVDs\nLanguage                                 : English\nDefault                                  : No\nForced                                   : No\n\nMenu\n00:00:00.000                             : en:Chapter 01\n00:06:18.294                             : en:Chapter 02\n00:11:42.368                             : en:Chapter 03\n00:20:03.076                             : en:Chapter 04\n00:32:26.069                             : en:Chapter 05\n00:42:49.233                             : en:Chapter 06\n00:51:28.293                             : en:Chapter 07\n","torrent":{"xt":"urn:btih:11c8f2566e78bda89b5b5f8b8dc34441acc7f441","amp;dn":"DEXTER.2006.S01E01.1080P.BluRay.TrueHD.REMUX.mkv","amp;tr":["udp%3A%2F%2Ftracker.openbittorrent.com%3A80","udp%3A%2F%2Fopen.demonii.com%3A1337","udp%3A%2F%2Ftracker.coppersurfer.tk%3A6969","udp%3A%2F%2Fexodus.desync.com%3A6969"],"infoHash":"11c8f2566e78bda89b5b5f8b8dc34441acc7f441","infoHashBuffer":{"type":"Buffer","data":[17,200,242,86,110,120,189,168,155,91,95,139,141,195,68,65,172,199,244,65]},"announce":[],"urlList":[]}}